<svg xmlns="http://www.w3.org/2000/svg" viewBox="0 0 637.31 144.97"><defs><style>.cls-1{fill:#8acba5;}.cls-2{fill:#38b97c;}.cls-3{fill:#cff3dd;}.cls-4{fill:#b2dfc6;}.cls-5{fill:#7c7c7c;}.cls-6{fill:#474747;}</style></defs><g id="spaceed"><path class="cls-1" d="M101.84,92.93,74.16,120.61a17,17,0,0,1-24.07,0h0a17,17,0,0,1,0-24.08L77.77,68.85"/><path class="cls-2" d="M73.88,96.75,50.69,73.56,28.87,51.74a17,17,0,0,0-24-.16h0a17,17,0,0,0,.15,24L26.86,97.39l23.19,23.19a17,17,0,0,0,24,.15h0A17,17,0,0,0,73.88,96.75Z"/><path class="cls-3" d="M40.83,63.3l-11.95,12a17,17,0,0,1-24,.16h0a17,17,0,0,1,.16-24l45-45a17,17,0,0,1,24-.17h0a17,17,0,0,1-.17,24l-33,33"/><rect class="cls-4" x="67.26" y="-7.78" width="34.49" height="97.79" rx="17.11" transform="translate(-4.33 71.8) rotate(-45)"/><path class="cls-1" d="M74.21,72.41l21-20.95a17,17,0,0,1,24.07,0h0a17,17,0,0,1,0,24.08l-21,20.95"/><path class="cls-5" d="M541.49,132.44c-.33-1.21-1-2.44-2.41-2.44a2,2,0,0,0-2.12,2c0,3.42,8.18,1.19,8.17,7.67,0,2.13-1.62,5.3-5.91,5.29-3.31,0-5.7-1.61-6.23-5l3.49-.51c.31,1.48,1.07,2.57,2.72,2.57a2.21,2.21,0,0,0,2.51-2.21c0-3.48-8.18-1.48-8.17-7.4a5.47,5.47,0,0,1,5.66-5.36,5.22,5.22,0,0,1,5.45,4.83Z"/><path class="cls-5" d="M564.34,144.74h-3.58l-2.31-12h0l-2.37,12h-3.57l-3.65-17.39h3.45l2.06,12.25h0l2.19-12.24h3.84l2.15,12.25h.05l2.27-12.24h3.44Z"/><path class="cls-5" d="M583.16,130.32h-7.33v4.16h6.08v3h-6.08v4.38h7.75v2.95H572.33l0-17.39h10.82Z"/><path class="cls-5" d="M593,127.39c6.61,0,9,3.76,9,8.7s-2.58,8.69-7.77,8.68h-5.45l0-17.39Zm.92,14.43c2.77,0,4.45-1.73,4.46-6.14,0-3.64-1.56-5.34-4.83-5.34h-1.31l0,11.49Z"/><path class="cls-5" d="M617.15,130.37h-7.33v4.15h6.07v2.95h-6.08v4.38h7.75v3H606.32l0-17.39,10.82,0Z"/><path class="cls-5" d="M627.08,127.43l5.19,11.47h.05V127.44h3.49l0,17.39h-3.73l-6.55-14h0v14H622l0-17.39Z"/><path class="cls-6" d="M177.56,31.73c-.29,4,2.15,8.81,6.67,8.81,3.15,0,4.88-2.56,5.54-5.36l8.15,1.49C196,43.27,189.65,47,183.34,47c-9.71,0-14.65-8.57-14.65-17.38s4.89-17.38,14.65-17.38c8.39,0,14.82,4,14.58,19.47Zm11.73-5.54c0-3.75-1.49-7.44-5.71-7.44-4,0-5.6,3.87-5.72,7.44Z"/><path class="cls-6" d="M216.08,16.43c2.8-2.32,6.25-4.17,9.94-4.17s8.75,2.2,8.75,10.42V46.31H226V26.25c0-2.68.18-6.9-3.63-6.9-2.56,0-4.59,1.84-6.25,3.63V46.31h-8.81V13h8.81Z"/><path class="cls-6" d="M254.32,35.36a2.25,2.25,0,0,0-2.5,2.08c0,4.35,23.09-3.21,23.09,9.82,0,4.94-3.33,10.18-16.55,10.18-11.48,0-15.41-4-15.41-8.39,0-2.56,1.6-3.87,3.63-5.06-1.43-1.07-2.62-2.32-2.62-4.23,0-3.27,1.79-5,4.34-6.66a12.56,12.56,0,0,1-4.16-9.17c0-7.38,6.25-11.67,13.45-11.67a16.09,16.09,0,0,1,8.22,2.32c1.78-1.66,3.39-2.73,6-2.73a12.38,12.38,0,0,1,2.56.23v6.19a8,8,0,0,0-2.8-.71,4.89,4.89,0,0,0-2.38.71A12.63,12.63,0,0,1,271,23.93c0,7.38-6.19,11.67-13.39,11.67Zm-2.8,11a2.28,2.28,0,0,0-1.37,2.08c0,3.1,6.25,3.28,8.33,3.28,1.49,0,9.23-.18,9.23-2.86,0-1.73-1.19-1.55-6.43-1.85Zm6.07-16.61c3.69,0,4.76-3,4.76-6.19S260.92,18,257.59,18c-3.69,0-4.82,3.09-4.82,6.25S254.2,29.76,257.59,29.76Z"/><path class="cls-6" d="M291.81,8.1H283V0h8.81Zm0,38.21H283V13h8.81Z"/><path class="cls-6" d="M310,16.43c2.8-2.32,6.25-4.17,9.94-4.17s8.75,2.2,8.75,10.42V46.31h-8.81V26.25c0-2.68.18-6.9-3.63-6.9-2.56,0-4.58,1.84-6.25,3.63V46.31h-8.81V13H310Z"/><path class="cls-6" d="M344.47,31.73c-.3,4,2.14,8.81,6.67,8.81,3.15,0,4.88-2.56,5.53-5.36l8.16,1.49C362.92,43.27,356.55,47,350.24,47c-9.7,0-14.64-8.57-14.64-17.38s4.88-17.38,14.64-17.38c8.4,0,14.82,4,14.59,19.47Zm11.73-5.54c0-3.75-1.49-7.44-5.72-7.44-4,0-5.59,3.87-5.71,7.44Z"/><path class="cls-6" d="M380,31.73c-.3,4,2.14,8.81,6.67,8.81,3.15,0,4.88-2.56,5.53-5.36l8.16,1.49C398.47,43.27,392.1,47,385.79,47c-9.7,0-14.64-8.57-14.64-17.38S376,12.26,385.79,12.26c8.4,0,14.83,4,14.59,19.47Zm11.73-5.54c0-3.75-1.49-7.44-5.72-7.44-4,0-5.59,3.87-5.71,7.44Z"/><path class="cls-6" d="M417.6,18.81c3.39-4,6.13-6.55,10.18-6.55h1.66v8.81a11.88,11.88,0,0,0-2.56-.36c-2.26,0-9.28,2.09-9.28,11V46.31h-8.81V13h8.81Z"/><path class="cls-6" d="M450.24,22.74c-.41-2.32-1.19-4-3.81-4a3.5,3.5,0,0,0-3.57,3.69C442.86,28.16,459,24,459,36.49,459,43.57,453.1,47,446.31,47s-11.19-3.33-12.08-10.23l8.27-.9c.18,2.38,1.43,4.65,4.11,4.65,2.2,0,4.29-1,4.29-3.58,0-5.83-16.13-1.07-16.13-14,0-6.73,5.77-10.66,12.26-10.66a11.3,11.3,0,0,1,11.55,9.47Z"/><path class="cls-6" d="M201.53,111.62h-8.27l-3.93-22.33h-.12l-4.05,22.33h-8.27l-8-33.34h8l4.05,22.09h.12l4.22-22.09h8.87l3.69,22.09H198l4.52-22.09H210Z"/><path class="cls-6" d="M226.06,73.4h-8.81V65.31h8.81Zm0,38.22h-8.81V78.28h8.81Z"/><path class="cls-6" d="M247,78.28h6.84V85.6H247v17c0,1.61.48,3.27,3.33,3.27a6.2,6.2,0,0,0,3.51-1.25v6.73a20.36,20.36,0,0,1-5.65,1c-5.48,0-10-3.09-10-10.36V85.6H234V78.28h4.11V70H247Z"/><path class="cls-6" d="M272.11,81.74c2.8-2.33,6.25-4.17,9.94-4.17s8.75,2.2,8.75,10.42v23.63H282V91.56c0-2.68.18-6.91-3.63-6.91-2.56,0-4.58,1.85-6.25,3.63v23.34H263.3V65.31h8.81Z"/><path class="cls-6" d="M299.33,95c0-8.87,4.88-17.38,14.64-17.38S328.61,86.08,328.61,95s-4.94,17.38-14.64,17.38S299.33,103.76,299.33,95Zm20.23,0c0-4.17-.83-10.89-5.59-10.89s-5.6,6.72-5.6,10.89.84,10.89,5.6,10.89S319.56,99.12,319.56,95Z"/><path class="cls-6" d="M354.17,108.16c-2.8,2.33-6.25,4.17-9.94,4.17s-8.75-2.2-8.75-10.42V78.28h8.81V98.34c0,2.68-.18,6.91,3.63,6.91,2.56,0,4.58-1.85,6.25-3.63V78.28H363v33.34h-8.81Z"/><path class="cls-6" d="M383.75,78.28h6.85V85.6h-6.85v17c0,1.61.48,3.27,3.33,3.27a6.24,6.24,0,0,0,3.52-1.25v6.73a20.43,20.43,0,0,1-5.66,1c-5.47,0-10-3.09-10-10.36V85.6h-4.11V78.28h4.11V70h8.81Z"/><path class="cls-6" d="M415.63,64.75h8.81l0,16.25c2.5-2.19,4.64-4,8.22-4,4.82,0,12.19,4.24,12.18,16.56,0,14.05-6.22,18.21-12.94,18.2-3.69,0-5.77-1.14-8.45-3.52l-.78,2.79h-7.08Zm8.76,36.62c1.37,2.09,3.09,3.94,5.71,3.94,5.3,0,6.08-6.54,6.08-10.53,0-3.69-1-9.88-5.88-9.89-2.56,0-4.34,1.78-5.89,3.63Z"/><path class="cls-6" d="M450.91,94.44c0-8.87,4.9-17.37,14.67-17.36s14.63,8.53,14.62,17.4-5,17.37-14.67,17.36S450.9,103.25,450.91,94.44Zm20.24,0c0-4.17-.82-10.9-5.58-10.9S460,90.29,460,94.45s.82,10.9,5.58,10.9S471.14,98.63,471.15,94.47Z"/><path class="cls-6" d="M496,83.67c3.4-4,6.14-6.55,10.18-6.54h1.67v8.81a12,12,0,0,0-2.56-.36c-2.26,0-9.29,2.07-9.3,10.94l0,14.65-8.81,0,0-33.33H496Z"/><path class="cls-6" d="M534.38,108.42c-2.68,2.37-4.76,3.5-8.46,3.5-6.72,0-12.91-4.19-12.89-18.23,0-12.33,7.4-16.54,12.22-16.54,3.58,0,5.72,1.8,8.21,4l0-16.25h8.81l0,46.31h-7.09Zm-6.81-24.3c-4.88,0-5.9,6.18-5.91,9.88,0,4,.76,10.41,6.06,10.42,2.62,0,4.35-1.72,5.72-3.8l0-12.86C531.91,85.91,530.13,84.12,527.57,84.12Z"/><path class="cls-6" d="M558.11,96.66c-.3,4,2.13,8.81,6.66,8.82,3.15,0,4.88-2.56,5.54-5.35l8.15,1.5c-1.91,6.6-8.28,10.34-14.59,10.34-9.71,0-14.64-8.59-14.63-17.4s4.91-17.38,14.67-17.37c8.39,0,14.82,4,14.56,19.49Zm11.73-5.52c0-3.75-1.47-7.44-5.7-7.45-4,0-5.6,3.86-5.72,7.44Z"/><path class="cls-6" d="M595.93,83.79c3.4-4,6.14-6.54,10.19-6.53h1.67v8.81a12.06,12.06,0,0,0-2.56-.36c-2.26,0-9.29,2.07-9.3,10.94l0,14.64h-8.81l0-33.33h8.81Z"/><path class="cls-6" d="M628.57,87.76c-.41-2.32-1.18-4-3.8-4a3.5,3.5,0,0,0-3.58,3.68c0,5.72,16.13,1.57,16.12,14.07,0,7.09-5.91,10.53-12.7,10.52s-11.18-3.35-12.07-10.25l8.28-.88c.17,2.38,1.42,4.64,4.1,4.64,2.2,0,4.29-1,4.29-3.56,0-5.84-16.13-1.09-16.11-14.07,0-6.73,5.78-10.65,12.27-10.64a11.29,11.29,0,0,1,11.54,9.48Z"/></g></svg>